<svg xmlns="http://www.w3.org/2000/svg" width="638" height="478" viewBox="0 0 638 478" version="1.1"><path d="M 315.730 28.131 C 314.766 28.671, 312.846 31.344, 311.464 34.072 C 302.455 51.850, 305.028 72.365, 317.831 84.836 C 324.297 91.134, 335.772 96.627, 348.931 99.725 C 364.172 103.312, 375.201 106.682, 377.500 108.454 C 379.479 109.979, 379.473 110.020, 376.907 112.314 C 375.349 113.708, 366.773 117.156, 355.407 120.958 C 316.450 133.991, 305.929 142.163, 310.986 155.462 C 312.433 159.269, 320.640 167.671, 327.400 172.267 C 334.835 177.322, 345.154 183.179, 345.687 182.646 C 345.910 182.423, 343.082 180.093, 339.403 177.468 C 329.636 170.498, 319.417 160.493, 317.031 155.564 C 312.163 145.508, 319.711 140.497, 355.500 130.024 C 382.715 122.061, 387.987 118.784, 387.996 109.827 C 388.004 101.795, 381.572 98.026, 357.441 91.923 C 333.508 85.869, 325.974 82.275, 319.108 73.636 C 313.579 66.678, 311.738 59.905, 312.231 48.332 C 312.589 39.928, 313.119 37.244, 315.285 32.868 C 316.727 29.955, 317.811 27.477, 317.695 27.361 C 317.578 27.245, 316.694 27.592, 315.730 28.131 M 277.421 100.896 C 271.201 103.722, 266.790 110.404, 268.391 114.576 C 268.883 115.857, 269.477 115.587, 271.531 113.145 C 274.796 109.266, 279.930 107.595, 286.275 108.346 C 297.583 109.685, 298.098 115.268, 289.468 143 C 285.413 156.029, 283.863 169.507, 285.966 173.436 C 287.344 176.011, 290.930 178, 294.195 178 C 295.956 178, 295.746 177.625, 292.898 175.683 C 289.763 173.546, 289.510 172.985, 289.633 168.433 C 289.728 164.928, 291.525 159.157, 295.843 148.500 C 299.185 140.250, 302.661 130.602, 303.566 127.060 C 305.741 118.555, 305.153 110.428, 302.048 106.068 C 297.365 99.490, 285.844 97.071, 277.421 100.896 M 306.603 193.453 C 302.620 201.163, 301.840 203.524, 302.162 206.899 C 302.544 210.910, 302.480 211.004, 299.026 211.536 C 287.931 213.244, 275.962 217.013, 262.261 223.113 C 259.929 224.151, 257.554 225, 256.982 225 C 254.983 225, 244.435 230.864, 237 236.110 C 222.044 246.663, 204.717 266.785, 196.324 283.348 C 192.851 290.201, 186.997 305.523, 187.014 307.712 C 187.022 308.696, 189.288 304.801, 192.050 299.058 C 199.384 283.806, 207.128 272.795, 218.464 261.500 C 236.875 243.155, 256.140 232.386, 282 225.984 C 294.290 222.941, 317.457 222.188, 329.500 224.440 C 372.097 232.405, 411.086 259.985, 433.658 298.120 C 439.029 307.193, 441.914 310.571, 440.604 306.250 C 440.312 305.288, 439.595 302.316, 439.009 299.647 C 436.394 287.717, 428.602 271.337, 419.674 259 C 413.948 251.088, 399.574 237.269, 391.382 231.801 C 373.638 219.958, 354.385 213.118, 333.452 211.220 L 325.507 210.500 325.383 205.854 C 325.285 202.146, 324.202 199.456, 320.025 192.542 C 317.146 187.775, 314.635 184.031, 314.445 184.221 C 314.255 184.411, 315.175 188.794, 316.490 193.961 C 319.034 203.960, 318.764 206.305, 314.929 207.522 C 312.309 208.354, 309 205.524, 309 202.452 C 309 201.221, 309.715 196.756, 310.589 192.529 C 311.463 188.303, 312.011 184.678, 311.806 184.473 C 311.602 184.268, 309.260 188.309, 306.603 193.453 M 298.154 240.570 C 289.445 242.913, 288.647 243.935, 295.500 243.970 C 315.726 244.076, 353.573 249.970, 369.500 255.495 C 371.110 256.053, 371.207 255.978, 370 255.110 C 365.389 251.795, 338.252 244.312, 318.500 240.909 C 305.641 238.693, 305.160 238.685, 298.154 240.570 M 269.322 252.969 C 262.240 257.057, 261.574 258.420, 267.123 257.468 C 275.209 256.080, 315.742 256.705, 330.500 258.444 C 346.316 260.309, 364.741 263.877, 377.096 267.469 C 381.685 268.803, 385.593 269.740, 385.782 269.551 C 386.362 268.971, 365.088 262.199, 354.500 259.594 C 334.743 254.733, 312.029 251.689, 287 250.549 L 274.500 249.980 269.322 252.969 M 250.235 267.539 L 246.500 271.079 259 270.289 C 279.190 269.014, 333.099 269.340, 346 270.815 C 358.918 272.291, 384.696 277.276, 391.102 279.536 C 393.418 280.353, 395.509 280.824, 395.750 280.584 C 396.388 279.945, 381.080 275.230, 369.500 272.498 C 344.464 266.590, 317.628 264.025, 280.735 264.010 L 253.971 264 250.235 267.539 M 276.500 274.215 C 267.150 274.644, 255.474 275.559, 250.554 276.248 C 242.021 277.442, 241.519 277.652, 239.684 280.797 C 238.626 282.611, 238.002 284.335, 238.297 284.630 C 238.591 284.925, 242.358 284.454, 246.666 283.585 C 272.497 278.371, 317.183 276.915, 346 280.348 C 360.685 282.098, 390.411 287.748, 399.415 290.501 C 402.118 291.327, 404.497 291.836, 404.702 291.631 C 404.907 291.426, 401.345 290.105, 396.787 288.695 C 370.792 280.653, 340.225 275.384, 314 274.424 C 306.575 274.153, 298.925 273.819, 297 273.682 C 295.075 273.546, 285.850 273.785, 276.500 274.215 M 277 301.080 C 236.341 304.344, 196.248 312.845, 163.500 325.146 C 152.380 329.323, 132 338.492, 132 339.318 C 132 339.564, 138.863 337.535, 147.250 334.808 C 184.341 322.750, 225.899 315.214, 273.490 311.918 C 295.379 310.401, 354.097 311.278, 374 313.418 C 416.202 317.955, 450.411 324.904, 482 335.355 C 489.425 337.812, 495.618 339.707, 495.761 339.566 C 495.905 339.426, 490.730 336.812, 484.261 333.759 C 451.486 318.290, 410.416 307.505, 365 302.443 C 347.816 300.527, 294.225 299.697, 277 301.080 M 302.272 323.557 C 268.156 327.280, 242.189 334.738, 226.097 345.435 C 217.862 350.910, 214.591 354.531, 211.135 362 C 208.186 368.373, 207.763 379.026, 210.223 385 L 211.664 388.500 212.951 381.722 C 217.697 356.718, 251.150 337.344, 310.948 324.967 C 326.421 321.764, 323.319 321.260, 302.272 323.557 M 342 328.893 C 336.309 329.525, 332.979 330.499, 324.500 334.015 C 323.400 334.471, 320.352 335.620, 317.728 336.567 C 315.103 337.514, 313.152 338.485, 313.392 338.725 C 313.631 338.965, 319.096 338.618, 325.535 337.954 C 367.385 333.639, 435.732 343.394, 448.585 355.515 C 453.198 359.866, 453.081 362.919, 448.111 367.889 C 438.298 377.702, 415.686 386.871, 343.500 410.311 C 310.345 421.076, 295.220 427.058, 290.863 431.128 C 287.230 434.522, 287.470 435.943, 292.054 438.186 C 297.558 440.879, 308.867 442.040, 333.500 442.443 C 346.150 442.650, 354.700 442.627, 352.500 442.393 C 350.300 442.159, 340.878 441.275, 331.563 440.428 C 313.866 438.820, 298.793 436.543, 296.186 435.084 C 294.945 434.390, 295.209 433.943, 297.591 432.711 C 302.979 429.925, 321.098 424.018, 354.949 414.010 C 419.503 394.925, 443.432 385.333, 454.765 373.999 C 464.335 364.430, 462.499 352.479, 450.366 345.369 C 440.219 339.422, 417.786 333.704, 392.292 330.567 C 377.721 328.774, 351.070 327.887, 342 328.893 M 306.659 333.534 C 293.291 336.446, 279.161 341.069, 268.114 346.144 C 259.611 350.050, 243.632 360.079, 242.387 362.291 C 241.893 363.170, 242.075 363.158, 243.053 362.250 C 243.794 361.563, 245 361, 245.734 361 C 246.468 361, 252.358 358.580, 258.823 355.622 C 265.287 352.664, 276.364 348.361, 283.437 346.060 C 290.509 343.759, 300.392 340.288, 305.398 338.347 C 316.785 333.932, 317.922 333.483, 321 332.188 L 323.500 331.135 320.500 331.154 C 318.850 331.164, 312.621 332.235, 306.659 333.534 M 344 345.672 C 310.084 348.101, 286.778 354.724, 268 367.270 C 262.833 370.723, 252.863 380.095, 249.687 384.486 L 247.527 387.473 250.684 385.225 C 256.080 381.383, 268.146 376.122, 276.369 374.026 C 288.076 371.043, 302.475 370.593, 327.500 372.427 C 373.644 375.810, 403.086 375.502, 420.537 371.455 C 429.210 369.444, 432.843 367.542, 434.043 364.387 C 435.845 359.646, 431.848 356.062, 420.445 352.192 C 404.280 346.707, 370.167 343.798, 344 345.672 M 239 366.709 C 238.175 367.013, 236.664 367.990, 235.642 368.880 C 233.553 370.701, 228.979 379.247, 229.039 381.217 C 229.061 381.923, 229.711 381.045, 230.484 379.266 C 231.257 377.487, 234.001 373.775, 236.582 371.016 C 239.162 368.257, 241.100 366.036, 240.887 366.079 C 240.674 366.122, 239.825 366.406, 239 366.709" stroke="none" fill="#f1b755" fill-rule="evenodd"/></svg>